<svg width="252" height="146" viewBox="0 0 252 146" fill="none" xmlns="http://www.w3.org/2000/svg">
<path d="M85.9071 72.3296C87.7756 71.7359 88.9804 70.0698 88.9804 68.022C88.9804 64.6958 86.3865 62.4966 81.7459 62.4966H70V82.9927H81.8627C86.8967 82.9927 89.8778 80.648 89.8778 76.8735C89.8839 74.7349 88.3165 72.9537 85.9071 72.3296ZM75.7285 66.9254H80.9346C82.2622 66.9254 83.0428 67.4888 83.0428 68.7369C83.0428 69.8335 82.2622 70.4878 80.9346 70.4878H75.7285V66.9254ZM81.537 78.5699H75.7285V74.6501H81.537C83.0428 74.6501 83.8542 75.4801 83.8542 76.5827C83.8603 77.6793 83.049 78.5699 81.537 78.5699Z" fill="#F1F6FC"/>
<path d="M97.7145 62.5029H91.8016V82.9991H97.7145V62.5029Z" fill="#F1F6FC"/>
<path d="M146.37 62.5029L139.08 82.9991H145.227L146.13 80.1152H153.727L154.662 82.9991H161.202L153.912 62.5029C153.912 62.5029 146.37 62.5029 146.37 62.5029ZM147.692 75.2138L148.233 73.4932C148.896 71.4454 149.437 69.8096 149.861 68.1737H150.046C150.439 69.8096 150.919 71.4393 151.582 73.4932L152.123 75.2138H147.692Z" fill="#F1F6FC"/>
<path d="M170.889 62.5029H162.333V82.9991H170.889C177.791 82.9991 182.038 78.3643 182.038 72.754C182.038 67.1014 177.791 62.5029 170.889 62.5029ZM170.796 77.7948H168.203V67.6951H170.796C174.023 67.6951 175.677 69.955 175.677 72.7419C175.683 75.5107 174.023 77.7948 170.796 77.7948Z" fill="#F1F6FC"/>
<path d="M125.607 69.6338C126.683 68.3554 128.361 67.5012 129.984 67.5012C131.889 67.5012 133.321 68.2464 135.061 69.7671L135.46 70.1245L138.546 65.8048L138.392 65.6412C136.253 63.3268 133.186 62 129.984 62C126.29 62 122.835 64.1084 121.194 66.0653C119.977 67.5133 119.067 69.246 118.102 71.0757C116.449 74.2141 115.14 76.4557 113.271 77.4372V77.4433C112.577 77.8068 111.808 77.9946 110.917 77.9946C109.454 77.9946 108.078 77.4493 107.045 76.4557C106.012 75.4682 105.441 74.1474 105.441 72.7479C105.441 69.858 107.899 67.5012 110.917 67.5012C113.007 67.5012 114.697 68.3009 115.933 69.8883L115.994 69.9731L118.822 65.1444C116.719 63.1451 113.874 62 110.911 62C104.722 62 99.6876 66.8226 99.6876 72.7479C99.6876 78.6732 104.722 83.4958 110.911 83.4958C117.998 83.4958 121.022 77.7462 123.235 73.5476C124.058 71.9845 124.771 70.6274 125.607 69.6338Z" fill="#F1F6FC"/>
<path d="M135.614 74.9473C134.415 76.7891 132.35 78.0008 130.002 78.0008C129.984 78.0008 129.959 78.0008 129.941 78.0008C129.922 78.0008 129.91 78.0008 129.891 78.0008C128.847 78.0008 127.863 77.7524 126.966 77.2677C126.154 76.8497 125.441 76.268 124.864 75.5713L122.067 80.3454C124.132 82.3387 126.923 83.4777 129.891 83.4777C133.211 83.4777 136.327 82.0661 138.435 79.6124L139.222 78.7702L135.614 74.9473Z" fill="#F1F6FC"/>
</svg>
